HIERARCHY
ROOT Hips
{
	OFFSET 0.000000 0.000000 0.000000
	CHANNELS 6 Xposition Yposition Zposition Zrotation Xrotation Yrotation
	JOINT Spine
	{
		OFFSET 0.000000 10.000000 0.000000
		CHANNELS 3 Zrotation Xrotation Yrotation
		JOINT Spine1
		{
			OFFSET 0.000000 15.000000 0.000000
			CHANNELS 3 Zrotation Xrotation Yrotation
			JOINT LeftShoulder
			{
				OFFSET 5.000000 0.000000 0.000000
				CHANNELS 3 Zrotation Xrotation Yrotation
				JOINT LeftArm
				{
					OFFSET 10.000000 0.000000 0.000000
					CHANNELS 3 Zrotation Xrotation Yrotation
					JOINT LeftForeArm
					{
						OFFSET 25.000000 0.000000 0.000000
						CHANNELS 3 Zrotation Xrotation Yrotation
						JOINT LeftHand
						{
							OFFSET 22.000000 0.000000 0.000000
							CHANNELS 3 Zrotation Xrotation Yrotation
							End Site
							{
								OFFSET 10.000000 0.000000 0.000000
							}
						}
					}
				}
			}
			JOINT RightShoulder
			{
				OFFSET -5.000000 0.000000 0.000000
				CHANNELS 3 Zrotation Xrotation Yrotation
				JOINT RightArm
				{
					OFFSET -10.000000 0.000000 0.000000
					CHANNELS 3 Zrotation Xrotation Yrotation
					JOINT RightForeArm
					{
						OFFSET -25.000000 0.000000 0.000000
						CHANNELS 3 Zrotation Xrotation Yrotation
						JOINT RightHand
						{
							OFFSET -22.000000 0.000000 0.000000
							CHANNELS 3 Zrotation Xrotation Yrotation
							End Site
							{
								OFFSET -10.000000 0.000000 0.000000
							}
						}
					}
				}
			}
			JOINT Neck
			{
				OFFSET 0.000000 15.000000 0.000000
				CHANNELS 3 Zrotation Xrotation Yrotation
				JOINT Head
				{
					OFFSET 0.000000 10.000000 0.000000
					CHANNELS 3 Zrotation Xrotation Yrotation
					End Site
					{
						OFFSET 0.000000 15.000000 0.000000
					}
				}
			}
		}
	}
	JOINT LeftUpLeg
	{
		OFFSET 10.000000 0.000000 0.000000
		CHANNELS 3 Zrotation Xrotation Yrotation
		JOINT LeftLeg
		{
			OFFSET 0.000000 -45.000000 0.000000
			CHANNELS 3 Zrotation Xrotation Yrotation
			JOINT LeftFoot
			{
				OFFSET 0.000000 -43.000000 0.000000
				CHANNELS 3 Zrotation Xrotation Yrotation
				JOINT LeftToeBase
				{
					OFFSET 0.000000 -5.000000 10.000000
					CHANNELS 3 Zrotation Xrotation Yrotation
					End Site
					{
						OFFSET 0.000000 0.000000 5.000000
					}
				}
			}
		}
	}
	JOINT RightUpLeg
	{
		OFFSET -10.000000 0.000000 0.000000
		CHANNELS 3 Zrotation Xrotation Yrotation
		JOINT RightLeg
		{
			OFFSET 0.000000 -45.000000 0.000000
			CHANNELS 3 Zrotation Xrotation Yrotation
			JOINT RightFoot
			{
				OFFSET 0.000000 -43.000000 0.000000
				CHANNELS 3 Zrotation Xrotation Yrotation
				JOINT RightToeBase
				{
					OFFSET 0.000000 -5.000000 10.000000
					CHANNELS 3 Zrotation Xrotation Yrotation
					End Site
					{
						OFFSET 0.000000 0.000000 5.000000
					}
				}
			}
		}
	}
}
MOTION
Frames: 11
Frame Time: 0.033337
0.667901 81.251443 0.956875 -4.150252 0.794752 6.766044 -0.000000 -0.000002 -20.925217 -0.072506 6.723226 -0.825526 -6.963856 -0.000363 0.005962 -42.384005 0.203907 2.312643 -7.283704 -0.051877 2.482936 0.000000 0.000000 0.000000 -7.094898 0.000433 -0.006981 75.459285 8.050229 26.090022 -10.705911 -0.710107 12.254246 0.000000 0.000000 0.000000 -6.524277 45.000000 4.128816 0.000000 0.000000 0.000000 3.712196 -1.918203 0.062168 2.142167 28.465848 -0.543421 -8.207806 19.533202 -22.619936 0.000000 0.000000 0.000000 4.848149 2.510917 -0.106313 4.154992 16.631311 -0.607568 -12.100359 -6.371388 -22.184824 0.000000 0.000000 0.000000
0.668193 81.245677 0.955577 -3.870394 1.024584 7.349966 -0.000000 -0.000001 -20.694060 0.231581 2.943350 -0.395699 -7.646064 -0.000319 0.004775 -50.915595 -0.337897 4.369170 -7.366550 -0.043981 2.362681 0.000000 0.000000 0.000000 -7.806570 0.000799 -0.011707 83.563535 8.458256 19.291231 -5.513190 -0.762442 13.820741 0.000000 0.000000 0.000000 -5.973921 45.000000 4.069562 0.000000 0.000000 0.000000 3.535088 -3.161897 0.097599 2.336467 30.278225 -0.632220 -8.116848 17.097250 -21.256293 0.000000 0.000000 0.000000 4.685316 1.747853 -0.071510 4.198684 17.813587 -0.658294 -12.388534 -6.840161 -22.585243 0.000000 0.000000 0.000000
0.666180 81.241945 0.953764 -3.545164 1.475519 8.220958 0.000000 0.000001 -20.418103 0.503457 -2.434907 0.355051 -8.281405 0.000670 -0.009258 -58.020803 -1.288432 8.826910 -9.114530 -0.055411 1.893958 0.000000 0.000000 0.000000 -8.508044 0.002914 -0.039170 90.293566 9.605929 10.131921 1.780643 -0.678952 15.358570 0.000000 0.000000 0.000000 -3.569895 45.000000 2.705042 0.000000 0.000000 0.000000 3.143255 -4.900231 0.134529 3.292311 31.965070 -0.943207 -7.628651 13.716618 -18.740831 0.000000 0.000000 0.000000 4.348214 0.207330 -0.007871 4.540051 19.936205 -0.798333 -12.857087 -7.277884 -23.310288 0.000000 0.000000 0.000000
0.661100 81.240139 0.951625 -3.226920 1.813705 9.268438 0.000000 0.000001 -20.162255 0.447069 -7.169394 1.098273 -8.650421 0.003747 -0.049540 -63.461169 -1.873242 13.180668 -13.221918 -0.106452 1.690031 0.000000 0.000000 0.000000 -8.948992 0.009950 -0.127152 94.961085 11.743990 2.600559 10.846563 0.106506 16.826942 0.000000 0.000000 0.000000 3.526286 45.000000 -2.927204 0.000000 0.000000 0.000000 2.616930 -6.656777 0.152219 5.207189 32.744034 -1.530759 -7.903255 18.171897 -21.171056 0.000000 0.000000 0.000000 3.919080 -1.632624 0.055862 5.163432 22.667102 -1.035573 -13.439570 -7.543221 -24.274223 0.000000 0.000000 0.000000
0.652799 81.239971 0.949473 -2.958587 1.754385 10.292349 0.000000 0.000003 -20.005191 0.010694 -9.370481 1.470956 -8.836221 0.009325 -0.120692 -68.247603 -1.613168 14.480777 -19.849592 -0.216906 2.127089 0.000000 0.000000 0.000000 -9.180109 0.025480 -0.317370 98.078507 15.075212 0.007912 20.739745 2.454664 19.508769 0.000000 0.000000 0.000000 14.864443 45.000000 -12.839703 0.000000 0.000000 0.000000 2.090462 -7.952129 0.145318 6.737715 33.786061 -2.048322 -7.723257 22.201084 -22.662992 0.000000 0.000000 0.000000 3.531444 -3.170428 0.097761 5.922600 25.419991 -1.336931 -14.009638 -7.586991 -25.269191 0.000000 0.000000 0.000000
0.642052 81.241104 0.947766 -2.759517 1.181229 11.087310 0.000001 0.000007 -20.034309 -0.657792 -8.344252 1.333702 -9.034182 0.016650 -0.210755 -73.254280 -0.260508 11.110954 -29.403252 -0.484387 2.588599 0.000000 0.000000 0.000000 -9.360502 0.049185 -0.600782 99.894791 19.805722 3.629102 29.323355 7.237882 25.779762 0.000000 0.000000 0.000000 19.293953 45.000000 -16.343375 0.000000 0.000000 0.000000 1.693329 -8.545695 0.126524 7.819122 34.728073 -2.448405 -7.279429 24.875552 -22.898443 0.000000 0.000000 0.000000 3.316030 -4.004499 0.115961 6.590502 27.723533 -1.628004 -14.450984 -7.476988 -26.077742 0.000000 0.000000 0.000000
0.630440 81.243246 0.947114 -2.628963 0.173760 11.520614 0.000001 0.000005 -20.348170 -1.429204 -4.642395 0.755477 -9.279160 0.023663 -0.291581 -78.048245 2.561452 3.090467 -43.103305 -1.145411 1.777314 0.000000 0.000000 0.000000 -9.491011 0.072949 -0.878727 99.519544 25.683900 13.182652 32.041986 10.000000 38.089867 0.000000 0.000000 0.000000 15.370458 45.000000 -12.194705 0.000000 0.000000 0.000000 1.481583 -8.507439 0.110203 8.563503 35.336735 -2.732325 -6.761105 27.467099 -22.934779 0.000000 0.000000 0.000000 3.323228 -4.129851 0.119854 6.996186 29.483547 -1.843000 -14.706710 -7.322691 -26.572477 0.000000 0.000000 0.000000
0.619737 81.246155 0.948190 -2.561138 -1.043215 11.553749 -0.000000 -0.000003 -21.021157 -2.276750 0.303934 -0.049990 -9.466256 0.027563 -0.332896 -81.096473 7.050475 -8.239082 -61.905148 -0.736246 -0.627725 0.000000 0.000000 0.000000 -9.468424 0.083391 -1.006912 95.717730 31.542671 27.285974 23.515596 10.000000 57.177446 0.000000 0.000000 0.000000 10.205264 45.000000 -7.405106 0.000000 0.000000 0.000000 1.426629 -8.117263 0.101232 8.984393 35.776660 -2.905193 -6.224218 29.999312 -22.939974 0.000000 0.000000 0.000000 3.505895 -3.866194 0.118367 7.099926 30.908433 -1.965198 -14.774667 -7.196577 -26.728916 0.000000 0.000000 0.000000
0.611319 81.249881 0.950813 -2.556890 -2.193586 11.215789 -0.000001 -0.000007 -22.030165 -3.147963 4.820110 -0.793409 -9.580522 0.027364 -0.326532 -80.892937 12.901205 -21.056074 -82.171989 9.828665 -5.663078 0.000000 0.000000 0.000000 -9.324879 0.074563 -0.914248 88.525019 35.969882 43.474191 5.345580 10.000000 76.569053 0.000000 0.000000 0.000000 6.151001 45.000000 -4.101685 0.000000 0.000000 0.000000 1.465036 -7.697436 0.098564 9.113482 36.190902 -2.983564 -5.705516 32.333892 -22.928285 0.000000 0.000000 0.000000 3.780083 -3.608133 0.119106 6.937676 32.229596 -2.006646 -14.677587 -7.123568 -26.578845 0.000000 0.000000 0.000000
0.606386 81.256556 0.949787 -2.622526 -3.044943 10.564844 -0.000002 -0.000005 -23.231531 -3.831752 7.686910 -1.271769 -9.797065 0.025076 -0.292591 -76.456439 19.451949 -34.360902 -85.907527 32.433757 -29.275028 0.000000 0.000000 0.000000 -9.281957 0.054230 -0.668027 79.481133 38.521088 58.847058 -15.499574 -1.538606 85.492336 0.000000 0.000000 0.000000 2.830442 45.000000 -1.786550 0.000000 0.000000 0.000000 1.552584 -7.480257 0.101499 8.979382 36.605577 -2.975557 -5.243524 34.348246 -22.923122 0.000000 0.000000 0.000000 4.087339 -3.609122 0.128830 6.541186 33.501019 -1.970684 -14.440107 -7.112281 -26.162475 0.000000 0.000000 0.000000
0.605166 81.269109 0.936382 -2.760142 -3.467062 9.662051 -0.000001 -0.000001 -24.444578 -4.027850 8.461945 -1.442430 -10.324239 0.022991 -0.254489 -66.980317 25.360579 -48.456549 -59.434980 29.390508 -80.877050 0.000000 0.000000 0.000000 -9.566800 0.033802 -0.403944 70.265494 39.783776 71.290688 -37.255027 -11.332373 83.208113 0.000000 0.000000 0.000000 -0.582526 45.000000 0.362371 0.000000 0.000000 0.000000 1.683033 -7.554493 0.111124 8.590345 36.957524 -2.875535 -4.881225 35.915846 -22.956030 0.000000 0.000000 0.000000 4.406954 -3.915744 0.150724 5.922508 34.595500 -1.845885 -14.081248 -7.180747 -25.508255 0.000000 0.000000 0.000000
